<?xml version="1.0" standalone="no"?>
<!DOCTYPE svg PUBLIC "-//W3C//DTD SVG 20010904//EN" "http://www.w3.org/TR/2001/REC-SVG-20010904/DTD/svg10.dtd">
<svg version="1.0" xmlns="http://www.w3.org/2000/svg" width="3039.000000pt" height="1636.000000pt"
  viewBox="0 0 3039.000000 1636.000000" preserveAspectRatio="xMidYMid meet">

  <g transform="translate(0.000000,1636.000000) scale(0.100000,-0.100000)" fill="#ffffff" stroke="none">
    <path d="M28377 16339 c-262 -30 -537 -133 -777 -290 -272 -178 -509 -440
-634 -702 -119 -247 -164 -441 -173 -733 -6 -192 4 -311 37 -472 130 -621 649
-1164 1266 -1325 140 -36 209 -47 359 -57 601 -37 1118 177 1484 615 207 248
354 547 414 840 19 96 22 140 21 345 0 205 -3 248 -23 340 -106 497 -422 935
-862 1199 -225 134 -452 212 -704 241 -102 11 -307 11 -408 -1z" />
    <path d="M5895 11954 c-639 -37 -1166 -137 -1717 -323 -746 -253 -1431 -636
-2033 -1137 -174 -144 -582 -554 -732 -734 -321 -386 -564 -756 -787 -1200
-160 -318 -256 -548 -351 -842 -166 -517 -249 -1023 -262 -1608 -23 -1086 225
-2053 771 -3004 711 -1238 1776 -2147 3141 -2681 640 -251 1289 -383 2039
-416 945 -41 1712 164 2451 656 396 264 715 568 997 949 l88 119 0 -697 0
-696 1465 0 1466 0 -4 2993 c-3 2212 -7 3023 -15 3112 -73 731 -214 1279 -484
1875 -675 1491 -1866 2616 -3413 3222 -588 231 -1232 368 -1910 408 -153 9
-581 11 -710 4z m590 -2844 c438 -31 796 -130 1195 -329 608 -304 1083 -777
1392 -1386 211 -416 308 -774 339 -1242 47 -729 -184 -1466 -653 -2085 -104
-138 -375 -416 -508 -522 -326 -259 -730 -469 -1118 -580 -266 -77 -465 -106
-763 -113 -426 -10 -765 42 -1125 173 -1007 364 -1749 1183 -2008 2214 -58
231 -77 382 -83 666 -6 264 2 393 38 604 126 745 558 1469 1154 1933 297 231
687 435 1036 540 365 111 733 153 1104 127z" />
    <path d="M12643 11613 c3 -10 1186 -2549 2630 -5643 l2626 -5625 1258 -2 1258
-3 2630 5636 c1447 3100 2632 5640 2633 5645 2 5 -685 9 -1701 9 l-1704 0
-1552 -3542 c-854 -1949 -1556 -3546 -1560 -3550 -4 -5 -706 1588 -1561 3540
l-1555 3547 -1704 3 c-1619 2 -1703 1 -1698 -15z" />
    <path d="M27020 5985 l0 -5645 1565 0 1565 0 0 5645 0 5645 -1565 0 -1565 0 0
-5645z" />
  </g>
</svg>
